<svg width="314" height="160" viewBox="0 0 314 160" fill="none" xmlns="http://www.w3.org/2000/svg">
<path fill-rule="evenodd" clip-rule="evenodd" d="M212.268 36.0518C211.957 36.0763 211.374 36.117 210.972 36.1421C210.57 36.1672 210.092 36.214 209.909 36.2461C209.727 36.2783 209.383 36.3236 209.146 36.3468C208.908 36.37 208.385 36.4483 207.983 36.5207C207.581 36.5931 207.076 36.6787 206.861 36.7109C206.646 36.7431 206.332 36.8019 206.164 36.8416C204.045 37.3412 203.43 37.5043 202.138 37.9084C201.398 38.1397 201.108 38.2394 200.959 38.3136C200.896 38.3452 200.811 38.3711 200.772 38.3711C200.683 38.3711 198.178 39.362 198.086 39.4338C198.049 39.4621 197.78 39.5842 197.488 39.7052C196.799 39.9902 195.076 40.8756 194.2 41.3951C193.999 41.5141 193.73 41.6684 193.602 41.7379C193.385 41.8558 193.12 42.0219 192.207 42.6135C191.606 43.0027 190.076 44.0804 189.659 44.4086C187.948 45.7536 186.869 46.7036 185.525 48.05C183.14 50.4387 180.798 53.4555 179.271 56.1069C179.071 56.4539 178.884 56.7678 178.856 56.8043C178.799 56.877 178.298 57.8255 177.872 58.6643C177.494 59.4104 177.027 60.4248 176.756 61.0888C176.629 61.3994 176.5 61.7132 176.47 61.7863C176.121 62.61 175.4 64.6941 175.17 65.5394C175.106 65.7768 175.015 66.1056 174.968 66.2701C174.922 66.4345 174.851 66.7035 174.812 66.8679C174.505 68.1551 174.338 68.9218 174.241 69.4917C174.179 69.8571 174.088 70.3802 174.039 70.6542C173.385 74.3554 173.386 79.6403 174.043 83.4744C174.272 84.8102 174.355 85.2579 174.441 85.6333C174.491 85.8525 174.582 86.256 174.643 86.53C174.78 87.1451 174.959 87.8293 175.261 88.8881C175.476 89.6431 176.195 91.6976 176.47 92.3423C176.501 92.4154 176.588 92.6341 176.662 92.8283C176.737 93.0226 176.883 93.3663 176.988 93.5922C177.093 93.8182 177.275 94.2122 177.393 94.4679C180.137 100.44 184.59 105.922 190.021 110.016C190.935 110.705 193.128 112.18 193.75 112.524C193.923 112.62 194.297 112.83 194.581 112.99C195.421 113.466 196.761 114.15 197.48 114.472C197.85 114.637 198.272 114.826 198.418 114.892C198.564 114.958 198.818 115.064 198.982 115.128C199.147 115.192 199.375 115.285 199.491 115.335C199.606 115.385 199.727 115.425 199.76 115.425C199.794 115.425 199.941 115.483 200.087 115.554C200.388 115.699 202.431 116.395 202.935 116.523C203.117 116.57 203.431 116.656 203.632 116.715C204.632 117.008 206.107 117.347 207.385 117.577C207.885 117.667 208.117 117.702 209.444 117.886C211.599 118.186 215.152 118.292 217.296 118.12C218.673 118.01 220.01 117.866 220.704 117.751C222.903 117.39 224.379 117.06 226.217 116.52C226.418 116.461 226.672 116.389 226.782 116.36C227.219 116.245 229.333 115.494 229.771 115.299C229.844 115.266 230.173 115.128 230.502 114.991C233.671 113.676 236.775 111.872 239.617 109.694C239.991 109.408 240.315 109.144 240.337 109.107C240.36 109.071 240.333 108.841 240.278 108.596C240.223 108.352 240.126 107.89 240.064 107.57C240.001 107.251 239.943 106.989 239.934 106.989C239.925 106.989 239.445 107.217 238.867 107.495C237.468 108.168 235.153 109.096 234.155 109.384C234.045 109.416 233.791 109.49 233.59 109.55C231.533 110.159 228.746 110.716 226.948 110.876C222.381 111.282 218.093 110.91 213.895 109.743C213.676 109.682 213.407 109.609 213.297 109.58C212.545 109.386 210.038 108.468 209.086 108.039C204.146 105.811 199.978 102.743 196.557 98.818C193.733 95.5775 191.564 91.9789 190.05 88.0246C189.952 87.7689 189.848 87.4998 189.818 87.4268C189.719 87.186 189.276 85.78 189.054 85.0022C187.433 79.31 187.29 72.892 188.657 67.1336C188.939 65.9456 189.186 65.0884 189.659 63.6462C189.82 63.1565 190.464 61.5181 190.686 61.0343C190.792 60.8034 190.878 60.5988 190.878 60.5795C190.878 60.5039 191.851 58.5707 192.121 58.1107C192.278 57.8428 192.406 57.6111 192.406 57.5957C192.406 57.5364 193.501 55.7822 193.854 55.2765C194.057 54.9843 194.327 54.5957 194.454 54.413C194.909 53.755 195.841 52.6 196.733 51.5899C199.246 48.7426 202.148 46.3594 205.492 44.397C206.362 43.8864 208.495 42.8141 209.345 42.4597C209.765 42.2845 210.198 42.1037 210.308 42.0579C210.476 41.9875 211.089 41.7635 212.201 41.3654C212.412 41.2899 213.002 41.1135 213.895 40.8587C214.181 40.7771 214.911 40.5965 215.888 40.3656C216.2 40.2919 216.987 40.1421 217.781 40.0054C218.289 39.918 219.184 39.8138 220.936 39.638C221.77 39.5544 225.199 39.5916 226.305 39.6963C226.856 39.7485 227.247 39.7591 227.283 39.7228C227.32 39.6865 227.303 39.4508 227.241 39.133C227.185 38.8418 227.109 38.4473 227.072 38.2564L227.005 37.9091L226.462 37.7361C222.959 36.6212 218.608 35.9848 214.593 36.0003C213.624 36.004 212.578 36.0272 212.268 36.0518ZM92.9813 37.0983C92.9168 37.1393 92.901 37.4345 92.9149 38.3428L92.9331 39.5335L93.3317 39.6225C95.9427 40.2051 97.6409 41.4949 98.2141 43.331C98.3763 43.8504 98.4166 45.0431 98.2885 45.5285C98.2475 45.6837 98.1828 45.9379 98.1448 46.0931C98.0311 46.557 97.5076 47.5531 96.9944 48.2821C96.7296 48.6583 95.8885 49.8628 95.1254 50.9588C94.3622 52.0549 93.213 53.7042 92.5715 54.624C91.9301 55.5439 90.7178 57.2851 89.8775 58.4933C87.977 61.2259 86.7719 62.9559 86.2879 63.6462C85.9069 64.1897 85.6379 64.5759 84.3449 66.4361C83.9385 67.0207 83.3861 67.8128 83.1174 68.1964C82.8486 68.58 82.0925 69.6669 81.4372 70.6116C80.7819 71.5564 80.0945 72.5428 79.9097 72.8037C79.6155 73.2192 78.7844 74.4116 77.4728 76.3004C76.7592 77.3279 75.3753 79.3143 74.997 79.8542C74.4613 80.6187 72.4042 83.5758 71.7958 84.4559C71.5111 84.8678 71.1437 85.3963 70.9793 85.6303C70.8149 85.8643 70.5064 86.3044 70.2939 86.6084C70.0814 86.9124 69.6929 87.4674 69.4304 87.8419C69.168 88.2163 68.5796 89.0611 68.1229 89.7193C67.6663 90.3774 66.919 91.4515 66.4623 92.1061C66.0056 92.7607 65.3779 93.6623 65.0673 94.1096C64.7568 94.5569 64.3026 95.2091 64.0579 95.5589C63.8133 95.9088 63.438 96.4491 63.2238 96.7596C62.8498 97.3021 60.9857 99.9796 60.266 101.008C60.0754 101.281 59.357 102.312 58.6698 103.3C57.9825 104.288 57.2845 105.29 57.1185 105.528C56.7472 106.059 55.3968 107.995 54.8019 108.849C54.5601 109.196 53.7806 110.317 53.0697 111.34C52.3588 112.363 51.6487 113.379 51.4919 113.599C51.0147 114.266 49.1648 116.941 49.0604 117.115C49.0066 117.204 48.9846 117.3 49.0115 117.327C49.0884 117.404 54.6938 117.396 54.8351 117.319C54.902 117.282 55.1352 117.013 55.3535 116.721C55.5718 116.428 56.4063 115.307 57.2081 114.23C58.0098 113.152 59.547 111.089 60.6241 109.646C61.7012 108.203 62.8483 106.664 63.1732 106.225C63.4982 105.787 64.6794 104.203 65.7983 102.705C66.9171 101.207 68.2659 99.3984 68.7955 98.686C69.3252 97.9736 70.5063 96.3893 71.4203 95.1654C73.6188 92.2212 78.6236 85.5086 80.1122 83.5076C80.7644 82.6308 81.8567 81.1661 82.5395 80.2527C83.6594 78.7546 85.9234 75.7189 88.7816 71.8831C89.3533 71.1158 90.6128 69.427 91.5807 68.13C92.5484 66.833 93.8296 65.1142 94.4276 64.3105C95.0257 63.5067 96.4748 61.5638 97.648 59.9928C98.8211 58.4218 100.258 56.4945 100.841 55.7097C101.424 54.925 102.753 53.1421 103.794 51.7476C104.835 50.3532 105.748 49.1292 105.823 49.0275C105.906 48.9157 105.991 48.862 106.039 48.8917C106.1 48.9294 106.119 51.6962 106.119 60.888C106.119 67.4591 106.101 72.8826 106.078 72.9404C106.042 73.0353 105.387 73.0455 99.3464 73.0455C93.0566 73.0455 92.6487 73.0525 92.5526 73.1618C92.4963 73.2257 92.3083 73.547 92.1346 73.8758C91.961 74.2047 91.7973 74.5036 91.771 74.5401C91.7447 74.5766 91.5641 74.9054 91.3696 75.2708C90.6185 76.6815 89.3182 79.0674 89.1853 79.2784C89.1087 79.4002 89.063 79.5272 89.0838 79.5607C89.1063 79.5973 92.5004 79.6217 97.5403 79.6217C104 79.6217 105.978 79.6402 106.039 79.7014C106.101 79.7631 106.119 84.036 106.119 98.5293C106.119 113.222 106.136 117.288 106.2 117.328C106.292 117.385 119.252 117.405 119.344 117.348C119.409 117.308 119.432 37.2079 119.367 37.103C119.32 37.0274 93.1004 37.0227 92.9813 37.0983ZM124.202 37.0983C124.137 37.1392 124.121 37.4276 124.135 38.3072L124.153 39.4623L124.353 39.5084C124.462 39.5339 124.716 39.5884 124.917 39.6297C127.041 40.066 128.7 40.8833 129.904 42.0864C130.988 43.1692 131.579 44.3332 131.894 46.0063C132.023 46.6908 132.025 47.1648 132.026 81.9428C132.026 103.044 132.051 117.224 132.087 117.281C132.139 117.364 133.062 117.378 138.632 117.381C142.198 117.383 145.167 117.367 145.23 117.345C145.336 117.308 145.345 116.18 145.377 98.5796L145.41 79.8542L155.6 79.821L165.79 79.7878L165.817 76.9979C165.831 75.4634 165.849 73.9987 165.856 73.743L165.869 73.278L155.712 73.2612C148.34 73.249 145.531 73.224 145.466 73.17C145.34 73.065 145.332 43.5216 145.458 43.4434C145.503 43.4156 153.373 43.3914 162.947 43.3896L180.355 43.3863L181.216 42.6174C182.511 41.461 183.354 40.7682 184.601 39.8351C185.813 38.9281 187.741 37.6162 188.209 37.3796C188.367 37.2999 188.484 37.1989 188.469 37.1552C188.449 37.0938 181.188 37.0723 156.365 37.0602C138.721 37.0515 124.248 37.0687 124.202 37.0983ZM233.491 40.9617C233.466 41.0016 233.551 41.0277 233.703 41.0271C233.891 41.0263 233.93 41.0095 233.856 40.9617C233.726 40.8777 233.543 40.8777 233.491 40.9617ZM234.063 41.1367C234.099 41.1809 234.247 41.2369 234.391 41.2612C234.535 41.2855 234.669 41.3327 234.69 41.366C234.711 41.3994 234.784 41.4267 234.854 41.4267C234.924 41.4267 235.079 41.4697 235.199 41.5221C235.319 41.5747 235.641 41.6981 235.915 41.7964C236.189 41.8948 236.503 42.0126 236.613 42.0584C236.722 42.1041 236.976 42.2082 237.177 42.2898C238.091 42.6605 239.965 43.572 240.687 43.9965C240.955 44.1541 241.187 44.283 241.202 44.283C241.218 44.283 241.551 44.4807 241.941 44.7222C246.888 47.7795 250.818 51.7158 253.84 56.6383C254.414 57.5747 255.825 60.2562 256.041 60.8231C256.131 61.0575 256.31 61.4852 256.472 61.8527C256.521 61.9623 256.607 62.1865 256.663 62.3509C256.72 62.5153 256.829 62.8142 256.906 63.0152C257.3 64.0456 257.87 65.964 258.13 67.1336C258.191 67.4076 258.266 67.7364 258.296 67.8643C258.45 68.5043 258.728 70.2622 258.864 71.4513C259.103 73.5558 259.119 76.8094 258.9 78.7582C258.755 80.0483 258.689 80.5476 258.593 81.0831C258.538 81.3936 258.463 81.827 258.428 82.0463C258.314 82.7495 257.884 84.4667 257.471 85.8658C257.307 86.4215 256.861 87.6808 256.636 88.2239C256.605 88.2969 256.471 88.6258 256.338 88.9546C255.775 90.3429 254.901 92.0807 254.078 93.4458C252.905 95.393 252.06 96.5627 250.438 98.4857C250.114 98.8699 249.791 99.2542 249.719 99.3398C249.648 99.4254 249.608 99.5141 249.631 99.5369C249.654 99.5597 250.007 99.2356 250.416 98.8167C253.465 95.6963 255.929 92.2304 257.664 88.6224C258.252 87.3999 258.573 86.6357 259.265 84.8029C259.373 84.5192 259.823 83.1187 259.896 82.8434C260.983 78.722 261.362 76.0093 261.36 72.348C261.359 70.0133 261.215 68.3774 260.821 66.2368C260.713 65.6523 260.625 65.1127 260.626 65.0378C260.626 64.8798 260.744 64.7423 260.879 64.7423C261.151 64.7423 264.856 67.2267 267.352 69.0825C268.154 69.6788 268.361 69.7696 268.485 69.5788C268.566 69.454 268.613 69.5094 266.694 67.4528C264.834 65.4581 263.299 63.5996 262.974 62.9495C262.804 62.6073 262.92 62.4519 263.47 62.2882C263.722 62.2131 263.983 62.1516 264.05 62.1516C264.116 62.1516 264.337 62.1091 264.541 62.0572C264.744 62.0053 265.209 61.9162 265.575 61.8594C265.94 61.8024 266.523 61.7113 266.87 61.6568C267.701 61.5263 269.862 61.2322 270.324 61.1866C270.525 61.1667 270.779 61.1374 270.889 61.1215C271.172 61.0802 273.399 60.8401 273.894 60.7975C274.312 60.7615 274.575 60.6695 274.575 60.5598C274.575 60.3851 274.35 60.3057 273.732 60.2633C273.374 60.2386 272.976 60.2071 272.848 60.1931C272.478 60.1527 271.806 60.0993 271.088 60.0532C270.723 60.0298 270.406 60.0002 270.384 59.9875C270.362 59.9748 270.063 59.9464 269.72 59.9245C269.376 59.9026 268.692 59.8435 268.198 59.7932C267.705 59.7428 267.122 59.6852 266.903 59.665C264.283 59.4248 262.123 59.1336 261.905 58.9911C261.67 58.8383 261.723 58.6318 262.162 57.994C263.228 56.4423 266.164 52.8931 267.947 50.9988C268.595 50.3102 268.735 50.0445 268.498 49.9535C268.393 49.9134 267.922 50.1619 267.534 50.4615C266.998 50.8755 263.096 53.4477 261.888 54.1832C260.399 55.0895 259.628 55.4733 259.406 55.4177C259.15 55.3533 258.969 54.7196 258.675 52.852C258.34 50.7225 257.836 46.3894 257.836 45.6421C257.836 45.1516 257.484 44.8051 257.315 45.1299C257.282 45.1938 257.22 45.7394 257.176 46.3422C257.133 46.945 257.07 47.7521 257.036 48.1357C257.003 48.5193 256.958 49.0424 256.938 49.2982C256.754 51.5985 256.345 54.3904 256.127 54.8355C255.909 55.2828 255.733 55.2034 255.121 54.3798C253.954 52.8099 251.589 50.3262 249.962 48.9609C246.899 46.3914 243.418 44.2748 239.934 42.8637C238.452 42.2633 236.987 41.7604 235.749 41.427C235.311 41.3089 234.817 41.1706 234.651 41.1197C234.287 41.0078 233.964 41.0172 234.063 41.1367ZM222.823 41.3571C222.764 41.3929 222.62 41.6548 222.501 41.9392C222.383 42.2236 222.244 42.5545 222.192 42.6744C222.141 42.7944 222.098 42.9289 222.098 42.9734C222.098 43.0178 221.993 43.3309 221.866 43.6692C221.738 44.0075 221.634 44.3112 221.634 44.3441C221.634 44.3967 222.001 44.5897 222.398 44.7458C222.765 44.8903 226.03 46.5236 226.461 46.7788C226.735 46.9406 226.969 47.0729 226.981 47.0729C226.993 47.0729 227.231 47.2074 227.509 47.3718C227.787 47.5362 228.029 47.6707 228.046 47.6707C228.063 47.6707 228.764 48.0892 229.602 48.6007C230.674 49.2545 231.187 49.5307 231.328 49.5307C231.438 49.5307 231.761 49.4876 232.045 49.4348C233.288 49.2039 234.382 49.0296 235.019 48.9609C235.201 48.9412 235.5 48.8986 235.683 48.8661C235.865 48.8338 236.224 48.79 236.48 48.7687C236.736 48.7475 237.214 48.7027 237.543 48.6691C238.503 48.5712 239.09 48.5353 239.848 48.5286C240.329 48.5243 240.581 48.4954 240.628 48.4392C240.768 48.27 240.152 45.9922 239.903 45.7603C239.792 45.6574 237.851 44.6602 237.244 44.3947C237.116 44.3387 236.834 44.214 236.618 44.1175C236.401 44.021 235.953 43.8377 235.621 43.7102C235.29 43.5827 234.944 43.4466 234.852 43.4077C234.642 43.3184 233.2 42.8406 232.76 42.7146C230.78 42.1477 228.901 41.7661 227.055 41.5566C226.694 41.5156 226.35 41.4731 226.291 41.4622C226.232 41.4513 225.646 41.4233 224.988 41.4C224.331 41.3767 223.598 41.3429 223.361 41.3249C223.123 41.3069 222.881 41.3214 222.823 41.3571ZM220.969 41.4619C220.915 41.4728 220.556 41.5156 220.172 41.5571C219.546 41.6249 219.099 41.6812 218.279 41.7958C217.407 41.9178 216.108 42.179 214.792 42.4973C213.651 42.7731 211.785 43.398 210.507 43.932C210.288 44.0236 210.049 44.1233 209.976 44.1533C209.264 44.447 207.214 45.494 206.489 45.9343C206.361 46.0119 206.211 46.0961 206.156 46.1214C205.832 46.2711 204.894 46.9 204.894 46.9674C204.894 47.0116 205.081 47.1005 205.309 47.1651C205.538 47.2297 205.837 47.325 205.974 47.3769C206.457 47.5601 206.79 47.6898 207.02 47.7839C207.148 47.8362 207.312 47.9034 207.385 47.9331C207.655 48.0431 208.495 48.4077 208.95 48.6122L209.419 48.823L210.029 48.5704C210.365 48.4314 210.775 48.2657 210.939 48.2022C211.103 48.1386 211.507 47.9795 211.836 47.8486C213.129 47.334 214.444 46.8593 215.755 46.4338C216.266 46.2678 216.79 46.0924 216.917 46.044C217.045 45.9957 217.329 45.9061 217.548 45.845C217.768 45.7838 218.022 45.7084 218.113 45.6774C218.204 45.6464 218.518 45.5561 218.811 45.4766C219.103 45.3971 219.476 45.2808 219.64 45.2181C219.97 45.0918 219.909 45.187 220.691 43.5855C220.941 43.0741 221.286 42.408 221.458 42.1054C221.631 41.8027 221.754 41.5263 221.732 41.4909C221.696 41.4324 221.211 41.4139 220.969 41.4619ZM221.533 45.8404C221.227 45.9347 220.707 46.0704 220.372 46.1433C220.244 46.171 219.96 46.2445 219.741 46.3066C219.521 46.3685 219.193 46.4583 219.01 46.506C217.979 46.7751 215.77 47.4745 213.961 48.1039C212.855 48.4889 211.5 49.0629 211.423 49.1787C211.377 49.2474 211.245 49.5714 211.129 49.8987C210.621 51.3314 210.324 52.1886 210.176 52.6527C210.088 52.9267 209.944 53.3601 209.854 53.6159C209.667 54.1515 209.294 55.3083 208.848 56.7379C208.677 57.2859 208.465 57.9646 208.376 58.246C208.288 58.5276 208.216 58.8032 208.216 58.8588C208.216 58.9142 209.508 59.9309 211.089 61.118C213.698 63.0786 214.705 63.8415 216.678 65.3544L217.336 65.8585L217.608 65.7649C217.758 65.7134 217.94 65.6452 218.013 65.6133C218.167 65.5464 218.213 65.5283 220.504 64.6421C220.632 64.5927 221.081 64.4277 221.501 64.2756C221.921 64.1235 222.583 63.881 222.973 63.7368C223.362 63.5925 223.765 63.4478 223.869 63.4153C223.973 63.3826 224.581 63.1734 225.221 62.9503C225.86 62.7271 226.667 62.4533 227.014 62.3417C227.361 62.2302 227.75 62.0992 227.878 62.0505C228.006 62.0018 228.509 61.8354 228.996 61.6808C229.484 61.5262 229.919 61.3632 229.963 61.3186C230.008 61.274 230.082 60.8976 230.128 60.4823C230.174 60.0669 230.252 59.4132 230.301 59.0296C230.35 58.646 230.424 58.0183 230.466 57.6347C230.507 57.251 230.583 56.5785 230.635 56.1401C230.687 55.7017 230.778 54.8796 230.836 54.3134C230.894 53.7471 230.984 52.925 231.036 52.4866C231.135 51.6547 231.173 51.0091 231.127 50.9655C231.112 50.9514 230.8 50.7542 230.435 50.5271C230.07 50.3002 229.577 49.9872 229.339 49.8317C229.102 49.6763 228.734 49.4534 228.522 49.3365C228.309 49.2196 227.796 48.9184 227.38 48.6671C226.54 48.16 226.158 47.9437 225.381 47.5357C225.092 47.3836 224.825 47.2351 224.789 47.2057C224.651 47.0945 222.071 45.8084 221.937 45.7841C221.86 45.7702 221.678 45.7955 221.533 45.8404ZM242.425 47.5999C242.425 47.7579 242.934 48.186 243.219 48.2678C243.539 48.3595 243.574 48.1671 243.284 47.9178C242.773 47.4804 242.425 47.3516 242.425 47.5999ZM203.054 48.2901C201.146 49.7177 199.053 51.6587 197.759 53.2012C197.145 53.9337 196.858 54.4843 196.32 55.9662C196.206 56.281 196.087 56.5984 196.056 56.6715C196.025 56.7445 195.906 57.1033 195.792 57.4686C195.677 57.8339 195.54 58.2475 195.488 58.3876L195.392 58.6424L196.284 59.5843C197.422 60.7867 199.026 62.3117 199.18 62.3378C199.245 62.3489 199.578 62.188 199.921 61.9801C200.518 61.6178 201.815 60.8905 202.93 60.2925C203.419 60.0304 205.286 59.0897 206.522 58.4825C206.814 58.3389 207.086 58.1866 207.126 58.1439C207.166 58.1013 207.356 57.5284 207.549 56.8708C207.922 55.6002 208.412 54.1005 208.915 52.6859C209.084 52.211 209.248 51.7476 209.279 51.6563C209.31 51.565 209.4 51.3258 209.48 51.1249C209.732 50.491 209.728 50.4282 209.419 50.2333C209.27 50.1391 209.133 50.0621 209.115 50.0621C209.096 50.0621 208.894 49.9476 208.665 49.8077C208.074 49.4465 205.96 48.4037 204.861 47.9308C204.645 47.8377 204.028 47.6043 203.999 47.6043C203.984 47.6043 203.559 47.9129 203.054 48.2901ZM241.066 48.8959C240.848 48.9801 240.659 49.0834 240.645 49.1255C240.611 49.2271 241.475 50.578 241.625 50.6585C241.732 50.7156 242.842 51.0318 243.206 51.1088C243.352 51.1397 243.355 51.1274 243.355 50.5479C243.355 49.9656 243.351 49.9517 243.139 49.7507C242.7 49.3346 241.806 48.7335 241.633 48.7382C241.539 48.7408 241.284 48.8118 241.066 48.8959ZM244.152 49.0906C244.152 49.4547 244.253 49.617 244.717 49.9961C245.323 50.4911 246.012 50.7548 246.012 50.4917C246.012 49.9613 244.915 49.0044 244.302 49.0003C244.219 48.9997 244.152 49.0399 244.152 49.0906ZM238.008 49.6326C237.971 49.6465 237.672 49.6884 237.343 49.7258C236.419 49.8309 235.381 49.9964 233.723 50.3029C233.413 50.3603 233.062 50.4224 232.945 50.4409C232.828 50.4594 232.705 50.5089 232.673 50.5506C232.641 50.5925 232.579 51.1797 232.535 51.8556C232.416 53.6884 232.332 54.7834 232.291 55.047C232.255 55.2805 232.271 55.2985 234.135 57.145C235.169 58.1695 236.431 59.4311 236.94 59.9486C237.448 60.4661 237.895 60.8895 237.932 60.8895C237.969 60.8895 238.898 60.6689 239.997 60.3992C241.095 60.1294 242.217 59.8594 242.491 59.799C243.135 59.6571 243.897 59.4838 244.003 59.4549C244.156 59.4133 244.067 57.1817 243.818 54.8115C243.698 53.6695 243.741 53.7667 243.128 53.2685C242.823 53.0212 242.265 52.5647 241.886 52.2541C241.508 51.9436 240.571 51.2188 239.803 50.6433C238.466 49.6413 238.273 49.5327 238.008 49.6326ZM245.414 51.6877C245.414 51.7414 245.457 52.0029 245.509 52.2689C245.561 52.5348 245.65 53.0214 245.706 53.3502C245.941 54.7291 245.975 54.8669 246.109 54.9932C246.241 55.1164 248.253 56.5663 248.619 56.8015C248.719 56.8659 248.844 56.9022 248.896 56.8821C249.01 56.8383 249.762 55.3337 249.75 55.1733C249.74 55.0399 249.165 54.1015 248.47 53.086L247.972 52.3569L246.842 51.976C245.653 51.5747 245.414 51.5265 245.414 51.6877ZM195.13 56.7035C195.03 56.8061 194.465 57.684 194.465 57.737C194.465 57.7525 194.351 57.9525 194.211 58.1815C193.077 60.0394 191.606 63.3167 191.074 65.174C191.042 65.2836 190.973 65.5228 190.92 65.7054C190.451 67.3187 190.146 68.6819 189.946 70.0563C189.911 70.2938 189.867 70.5554 189.848 70.6376C189.823 70.7437 189.843 70.787 189.917 70.787C190.065 70.787 191.595 69.6762 191.635 69.5394C191.653 69.4766 191.701 69.231 191.741 68.9935C191.984 67.5633 192.042 67.2642 192.305 66.0708C192.443 65.4444 192.804 63.9452 192.872 63.7126C192.905 63.603 193.023 63.1846 193.135 62.7827C193.357 61.9848 194.058 59.8601 194.395 58.9632C194.728 58.0777 194.77 57.97 195.028 57.348C195.278 56.745 195.314 56.514 195.13 56.7035ZM245.398 59.3485L245.016 59.3684V59.8012C245.016 60.0392 245.046 60.2912 245.084 60.3611C245.164 60.5104 245.897 61.0224 246.03 61.0224C246.081 61.0224 246.22 60.8867 246.339 60.7209L246.555 60.4193L246.269 59.918C246.111 59.6423 245.936 59.3968 245.881 59.3726C245.825 59.3483 245.608 59.3375 245.398 59.3485ZM205.948 59.999C205.533 60.2022 204.82 60.5514 204.363 60.7747C203.471 61.2109 201.776 62.1221 201.681 62.2164C201.65 62.248 201.6 62.3883 201.57 62.5283C201.541 62.6682 201.366 63.3955 201.181 64.1444C200.995 64.8934 200.814 65.6407 200.779 65.8051C200.573 66.7451 200.486 67.1384 200.407 67.4657L200.32 67.8311L200.764 68.2847C201.661 69.2014 203.979 71.3522 204.09 71.3712C204.153 71.3819 204.472 71.2665 204.798 71.1146C205.66 70.7145 206.149 70.4888 206.489 70.3358C206.653 70.2617 207.051 70.0788 207.373 69.9294C207.694 69.78 207.97 69.6578 207.986 69.6578C208.001 69.6578 208.269 69.5382 208.581 69.3921C208.893 69.2459 209.173 69.1264 209.204 69.1264C209.358 69.1264 209.599 68.8415 209.638 68.6128C209.662 68.4751 209.724 68.1532 209.776 67.8975C209.827 67.6418 209.919 67.1784 209.978 66.8679C210.038 66.5573 210.115 66.1837 210.15 66.0376C210.185 65.8914 210.239 65.6224 210.27 65.4397C210.301 65.2571 210.421 64.6742 210.537 64.1444C210.652 63.6147 210.763 63.0893 210.783 62.9769C210.819 62.7798 210.784 62.7447 209.8 61.9856C209.239 61.5527 208.571 61.0319 208.316 60.8282C207.849 60.4555 206.918 59.7568 206.779 59.6739C206.737 59.6494 206.364 59.7957 205.948 59.999ZM235.384 60.7192C235.256 60.7688 234.838 60.9061 234.454 61.0244C231.918 61.8059 225.52 63.9515 225.416 64.055C225.38 64.0915 225.381 64.4181 225.418 64.8773C225.453 65.2962 225.528 66.2667 225.585 67.034C225.642 67.8012 225.719 68.8324 225.756 69.3257C225.793 69.8189 225.85 70.6708 225.883 71.2188C226.102 74.8778 226.159 75.752 226.186 75.8798C226.223 76.0534 226.545 76.1638 228.376 76.6324C228.486 76.6604 228.799 76.7447 229.073 76.8196C229.347 76.8946 230.035 77.076 230.601 77.2227C231.167 77.3693 231.81 77.5389 232.029 77.5995C232.249 77.6601 232.518 77.7335 232.627 77.7626C233.927 78.1086 234.451 78.2489 234.985 78.3942C235.734 78.5979 237.088 78.9562 237.281 79.0021C237.356 79.0199 237.45 78.9948 237.49 78.9461C237.572 78.8442 238.838 76.6941 238.838 76.6556C238.838 76.6414 238.91 76.5154 238.999 76.3753C239.087 76.2353 239.307 75.8547 239.488 75.5297C239.669 75.2046 239.885 74.8191 239.967 74.673C240.134 74.3789 241.008 72.8021 241.294 72.2816C241.394 72.0989 241.649 71.6207 241.86 71.2188C242.071 70.8169 242.359 70.2752 242.5 70.015C242.642 69.7547 242.757 69.5098 242.757 69.4706C242.757 69.4018 240.842 66.8279 239.832 65.5382C237.99 63.1877 235.869 60.6668 235.715 60.6438C235.661 60.6357 235.512 60.6697 235.384 60.7192ZM195.988 62.6391C195.529 62.9008 194.849 63.2883 194.478 63.5002C194.106 63.7122 193.776 63.9364 193.745 63.9984C193.564 64.3556 193.064 66.6468 192.829 68.194L192.713 68.9554L193.971 70.1699C194.663 70.8379 195.278 71.3845 195.338 71.3847C195.433 71.3849 196.138 71.0501 198.317 69.9704C198.963 69.6503 198.897 69.7746 199.148 68.3957C199.392 67.0567 199.509 66.4401 199.616 65.9379C199.666 65.7004 199.727 65.3764 199.75 65.2177L199.793 64.9293L198.41 63.5405C197.649 62.7766 196.981 62.1543 196.925 62.1575C196.869 62.1608 196.448 62.3775 195.988 62.6391ZM213.43 64.4407C213.32 64.4923 212.962 64.6421 212.633 64.7736C212.304 64.9051 211.975 65.0398 211.902 65.0731C211.829 65.1063 211.633 65.193 211.467 65.2658C211.129 65.4136 211.184 65.2579 210.901 66.8679C210.846 67.1784 210.773 67.56 210.737 67.7158C210.702 67.8716 210.673 68.0262 210.673 68.0592C210.673 68.1214 212.623 69.8571 212.693 69.8571C212.715 69.8571 212.934 69.765 213.181 69.6525C213.816 69.3627 213.83 69.3565 214.493 69.0882C215.375 68.7308 215.442 68.6824 215.487 68.367C215.528 68.0824 215.658 67.3685 215.819 66.536C215.895 66.1439 215.898 66.014 215.835 65.9251C215.664 65.6844 213.916 64.3438 213.775 64.3452C213.695 64.346 213.54 64.389 213.43 64.4407ZM247.274 65.2292L246.975 65.3069L246.937 65.8051C246.903 66.2419 246.917 66.336 247.048 66.569C247.273 66.9663 247.587 67.2807 247.723 67.2434C247.787 67.2259 247.95 67.1929 248.086 67.1701C248.221 67.1471 248.347 67.1041 248.366 67.0743C248.384 67.0446 248.433 66.8035 248.474 66.5385L248.549 66.0568L248.294 65.6877C247.878 65.083 247.863 65.0762 247.274 65.2292ZM248.699 67.6701C248.671 67.7165 248.625 67.8614 248.598 67.992C248.55 68.2248 248.422 68.6966 248.228 69.3589C248.174 69.5415 248.116 69.7508 248.097 69.8238C248.073 69.9218 248.275 70.2098 248.866 70.9199C249.308 71.4496 249.694 71.8918 249.725 71.9023C249.777 71.9203 250.346 71.4623 250.95 70.9143L251.213 70.6762L251.104 70.1504C250.915 69.2414 250.73 68.4365 250.661 68.2281C250.599 68.04 250.55 68.0153 249.881 67.8372C248.965 67.5931 248.764 67.5648 248.699 67.6701ZM210.64 69.8589C210.421 69.9659 210.092 70.1177 209.909 70.1961C209.727 70.2746 209.358 70.4397 209.091 70.5629C208.823 70.6862 208.593 70.787 208.58 70.787C208.556 70.787 207.857 71.109 206.854 71.5826C206.562 71.7206 206.16 71.9033 205.96 71.9885C205.761 72.0737 205.417 72.2343 205.196 72.3454L204.795 72.5473L204.775 73.1119C204.742 74.0662 205.006 79.6173 205.096 79.858C205.137 79.9678 205.498 80.1103 206.93 80.5818C210.605 81.7916 211.516 82.0795 211.669 82.0795C211.757 82.0795 211.936 81.8485 212.275 81.299C212.54 80.8696 212.998 80.1326 213.293 79.6609C213.587 79.1893 213.875 78.7259 213.931 78.6313C213.988 78.5367 214.149 78.2799 214.29 78.0607C214.431 77.8415 214.642 77.5127 214.759 77.33C214.876 77.1473 215.137 76.7403 215.339 76.4255C215.542 76.1108 215.727 75.7906 215.751 75.7139C215.796 75.5729 215.661 75.3863 213.892 73.1551C213.368 72.4939 212.411 71.2592 211.652 70.2656C211.299 69.8031 211.158 69.6562 211.072 69.6621C211.054 69.6634 210.859 69.7519 210.64 69.8589ZM192.209 70.3746C192.155 70.3937 191.922 70.5391 191.69 70.6978C191.458 70.8564 191.256 70.9863 191.242 70.9863C191.191 70.9863 189.902 71.9124 189.834 71.9972C189.797 72.044 189.749 72.3813 189.729 72.7466C189.708 73.1119 189.657 73.7995 189.616 74.2744C189.575 74.7493 189.55 75.3312 189.562 75.5674L189.583 75.9968L190.579 76.7483C191.127 77.1617 191.649 77.5187 191.738 77.5417C191.843 77.5687 191.985 77.5363 192.137 77.45C192.267 77.3766 192.612 77.1876 192.904 77.03C193.197 76.8725 193.547 76.6737 193.684 76.5884C193.82 76.5031 193.96 76.4332 193.995 76.4332C194.031 76.4332 194.106 76.3668 194.163 76.2856C194.243 76.1713 194.266 75.9503 194.267 75.3058C194.268 74.8481 194.297 74.0448 194.333 73.5205C194.369 72.9964 194.374 72.5245 194.345 72.472C194.253 72.3087 192.531 70.4552 192.416 70.396C192.356 70.3652 192.263 70.3556 192.209 70.3746ZM250.833 72.0441L250.24 72.6402L250.455 73.6898C250.574 74.2671 250.695 74.7842 250.723 74.839C250.762 74.9125 250.963 74.9529 251.491 74.9929C251.885 75.0226 252.232 75.0226 252.261 74.9929C252.291 74.963 252.376 74.6248 252.451 74.2412C252.526 73.8576 252.62 73.402 252.66 73.2287C252.731 72.9242 252.726 72.9044 252.512 72.6309C252.053 72.043 251.566 71.4838 251.497 71.4663C251.458 71.4563 251.159 71.7163 250.833 72.0441ZM247.367 76.1321C247.035 76.3315 246.729 76.5359 246.687 76.5864C246.62 76.6673 246.569 77.0072 246.438 78.26L246.403 78.5921L247.006 79.1401C247.337 79.4415 247.632 79.6881 247.66 79.6881C247.688 79.6881 247.994 79.5013 248.34 79.273L248.968 78.8578L249.049 77.961C249.093 77.4678 249.116 77.0045 249.1 76.9314C249.066 76.7829 248.139 75.7689 248.037 75.7693C248.001 75.7694 247.7 75.9327 247.367 76.1321ZM189.71 77.9112C189.786 79.2966 190.085 81.3026 190.45 82.8766C190.674 83.8473 190.7 83.9441 190.982 84.9026C191.304 85.9985 191.818 87.4761 192.137 88.2239C192.168 88.2969 192.26 88.5211 192.342 88.7221C192.998 90.339 194.169 92.5291 195.2 94.0694C195.575 94.629 196.491 95.8503 196.71 96.0825C196.899 96.2826 196.931 96.2944 197.071 96.2153C197.338 96.0652 198.837 95.0395 198.87 94.985C198.887 94.9564 198.922 92.5681 198.949 89.6777L198.997 84.4225L198.774 84.2586C198.651 84.1685 198.042 83.725 197.421 83.2731C195.657 81.9896 194.092 80.8136 193.403 80.2539C193.056 79.9722 192.577 79.5843 192.34 79.392C192.102 79.1997 191.421 78.6048 190.825 78.0699C190.23 77.5351 189.725 77.0975 189.704 77.0975C189.683 77.0975 189.686 77.4637 189.71 77.9112ZM244.883 80.2265C244.317 80.742 243.545 81.437 243.168 81.7711C242.532 82.3346 242.485 82.3927 242.52 82.5777C242.563 82.8098 242.649 83.2009 242.792 83.8065C242.946 84.4568 243.281 86.0456 243.36 86.4953C243.436 86.9292 243.503 87.0093 243.754 86.9663C243.845 86.9506 244.219 86.9033 244.584 86.8612C244.949 86.8192 245.532 86.7436 245.879 86.6933C246.226 86.643 246.667 86.5828 246.859 86.5596C247.051 86.5365 247.265 86.468 247.334 86.4075C247.438 86.3153 247.887 85.0795 248.072 84.3712C248.225 83.7883 248.693 82.2296 248.746 82.1293C248.783 82.0584 248.782 81.9677 248.744 81.8968C248.663 81.7453 246.094 79.3279 245.991 79.306C245.948 79.2969 245.449 79.711 244.883 80.2265ZM250.533 81.0904C250.298 81.203 250.04 81.3201 249.96 81.3506C249.856 81.3901 249.78 81.518 249.698 81.7926C249.635 82.0052 249.512 82.3992 249.425 82.6683C249.338 82.9373 249.267 83.2004 249.267 83.253C249.267 83.3614 249.956 84.4203 250.11 84.5479C250.192 84.6159 250.249 84.609 250.42 84.5106C250.535 84.4442 250.767 84.317 250.937 84.2281C251.106 84.1391 251.288 84.0153 251.342 83.953C251.432 83.8483 251.947 82.3371 251.946 82.1816C251.944 82.0247 251.175 80.8839 251.07 80.8847C251.01 80.8852 250.768 80.9777 250.533 81.0904ZM234.485 81.7696C234.413 81.8183 234.085 82.0005 233.756 82.1743C233.428 82.3482 233.131 82.5167 233.097 82.549C233.041 82.6024 233.151 84.1304 233.232 84.4138C233.249 84.4738 233.642 84.7385 234.107 85.0021L234.951 85.4813L235.25 85.3196C236.189 84.8128 236.485 84.6406 236.529 84.576C236.556 84.5364 236.578 84.1132 236.579 83.6354C236.58 82.8182 236.571 82.7589 236.43 82.6323C236.248 82.4687 234.815 81.6809 234.699 81.6809C234.654 81.6809 234.557 81.7208 234.485 81.7696ZM210.607 83.9385C210.351 84.4495 210.142 84.9086 210.142 84.9588C210.142 85.0089 210.488 85.4269 210.91 85.8878L211.678 86.7256L211.989 86.6043C213.155 86.1502 213.573 85.9742 213.645 85.9069C213.707 85.8487 213.712 85.7019 213.664 85.2999C213.563 84.4434 213.417 83.5388 213.373 83.4946C213.35 83.472 213.204 83.4312 213.049 83.404C212.392 83.2891 211.687 83.1439 211.471 83.079C211.343 83.0407 211.202 83.0094 211.156 83.0094C211.11 83.0094 210.863 83.4275 210.607 83.9385ZM235.749 86.8969C235.567 86.9438 235.291 86.9851 235.136 86.9886C234.803 86.9962 234.709 87.1104 234.586 87.6593C234.54 87.8602 234.462 88.1786 234.412 88.367C234.362 88.5553 234.321 88.7568 234.321 88.8147C234.321 88.8997 234.978 89.2846 235.727 89.6386C235.785 89.6657 237.177 88.3897 237.177 88.31C237.177 88.2769 237.116 88.1094 237.041 87.9379C236.966 87.7664 236.88 87.5663 236.85 87.4932C236.545 86.7559 236.575 86.7952 236.32 86.8036C236.189 86.8079 235.932 86.8499 235.749 86.8969ZM262.336 86.9339C262.217 87.0036 262.176 87.292 262.277 87.3545C262.308 87.3738 262.372 87.5682 262.418 87.7863C262.504 88.1891 262.738 88.5138 262.879 88.4262C262.919 88.402 262.951 88.2344 262.951 88.0539C262.951 87.7311 263.03 87.6404 263.187 87.7831C263.221 87.8146 263.459 87.9531 263.715 88.0906C263.97 88.2282 264.305 88.4135 264.458 88.5023L264.737 88.6638L264.84 88.4637C264.897 88.3537 264.944 88.2362 264.944 88.2027C264.944 88.1691 264.682 88.007 264.362 87.8424C264.043 87.6779 263.485 87.39 263.122 87.2026C262.76 87.0154 262.461 86.8631 262.458 86.8641C262.455 86.8653 262.4 86.8966 262.336 86.9339ZM238.082 88.7167C237.344 89.4599 237.108 89.7381 237.136 89.8293C237.167 89.931 237.345 90.9035 237.49 91.76C237.538 92.0436 237.598 92.0838 238.107 92.1768C238.345 92.2202 238.725 92.2976 238.951 92.3488C239.798 92.5401 239.759 92.5577 240.793 91.5144L241.712 90.5868L241.668 90.1028C241.56 88.9125 241.472 88.2849 241.403 88.2177C241.362 88.1778 241.075 88.0917 240.764 88.0264C240.454 87.9612 240.031 87.8668 239.825 87.8167C239.122 87.646 239.167 87.6226 238.082 88.7167ZM261.483 88.8736C261.358 88.9569 261.199 89.1327 261.128 89.2642C261.014 89.4744 261.008 89.5362 261.08 89.774C261.235 90.2919 261.82 90.7813 262.564 91.0159C262.924 91.1293 262.956 91.1294 263.244 91.0194C263.758 90.8231 263.933 90.4148 263.72 89.9092C263.548 89.5019 262.891 88.9975 262.296 88.8171C261.873 88.6889 261.744 88.6978 261.483 88.8736ZM262.581 89.5739C263.211 89.9547 263.398 90.167 263.287 90.3744C263.171 90.5916 262.906 90.5491 262.351 90.2246C261.798 89.9004 261.489 89.6247 261.489 89.4548C261.489 89.1305 261.927 89.1783 262.581 89.5739ZM260.162 90.8314C259.925 91.0675 259.895 91.1336 259.895 91.4133C259.895 91.818 260.065 92.0953 260.51 92.4148C260.912 92.7033 261.48 92.9757 261.7 92.9854C262.06 93.0012 262.167 92.9597 262.419 92.7076C262.642 92.4851 262.685 92.3982 262.685 92.1729C262.685 91.7817 262.541 91.5609 262.072 91.2331C261.518 90.8457 261.076 90.6379 260.72 90.5978C260.449 90.5673 260.409 90.584 260.162 90.8314ZM261.322 91.4138C261.983 91.7902 262.154 91.9489 262.154 92.1855C262.154 92.4708 261.98 92.5219 261.585 92.3528C261.134 92.16 260.588 91.8013 260.42 91.5883L260.283 91.4144L260.458 91.2639C260.554 91.1812 260.67 91.1134 260.714 91.1134C260.759 91.1134 261.032 91.2486 261.322 91.4138ZM259.414 92.4248C258.94 92.4921 258.532 93.2249 258.701 93.704C258.86 94.1549 258.972 94.2033 259.157 93.9003C259.264 93.7234 259.269 93.6676 259.196 93.4551C259.15 93.3214 259.128 93.171 259.148 93.1209C259.201 92.9807 259.474 92.9015 259.659 92.972C259.899 93.0634 260.014 93.2869 260.067 93.7705C260.144 94.4769 260.447 95.2318 260.653 95.2318C260.703 95.2318 260.869 95.0301 261.022 94.7835C261.176 94.5368 261.395 94.1898 261.509 94.0123C261.71 93.7003 261.712 93.6865 261.59 93.5972C261.382 93.4448 261.3 93.4873 261.052 93.8741C260.922 94.0772 260.782 94.2322 260.741 94.2184C260.699 94.2046 260.617 93.9413 260.557 93.6332C260.407 92.8603 260.38 92.7955 260.14 92.6167C259.906 92.4427 259.69 92.3855 259.414 92.4248ZM257.239 95.311C257.075 95.3953 256.844 95.5937 256.724 95.7518C256.529 96.0105 256.507 96.0842 256.507 96.4891C256.507 96.8812 256.532 96.9735 256.702 97.2078C257.055 97.6944 257.713 98.0882 258.174 98.0882C258.621 98.0882 259.075 97.7231 259.388 97.1117C259.53 96.8332 259.525 96.6772 259.362 96.3584C259.211 96.0615 259.065 96.0256 258.845 96.231C258.708 96.358 258.705 96.3792 258.799 96.5599C258.919 96.7919 258.923 96.8989 258.822 97.1209C258.629 97.5455 258.151 97.6157 257.659 97.2919C257.245 97.0189 257.095 96.812 257.055 96.456C257.026 96.202 257.046 96.1443 257.225 95.9657C257.382 95.8079 257.485 95.7632 257.691 95.7632C257.929 95.7632 257.963 95.7417 258.03 95.5515C258.116 95.3024 258.07 95.2391 257.764 95.1924C257.605 95.1681 257.448 95.2035 257.239 95.311ZM255.373 97.6398C255.147 97.9046 254.892 98.2033 254.805 98.3034C254.718 98.4036 254.647 98.5234 254.647 98.5696C254.647 98.6782 256.674 100.347 256.806 100.347C256.915 100.347 257.172 100.118 257.172 100.021C257.172 99.9882 256.977 99.8036 256.74 99.611C256.502 99.4183 256.308 99.2167 256.308 99.1631C256.308 99.1095 256.443 98.9082 256.607 98.7158C256.919 98.3512 256.96 98.2351 256.826 98.1014C256.684 97.959 256.59 98.0152 256.297 98.4176C256.139 98.6354 255.969 98.8297 255.92 98.8496C255.813 98.8928 255.468 98.6345 255.409 98.4671C255.38 98.3826 255.472 98.2277 255.726 97.9356C256.187 97.4066 256.196 97.3881 256.072 97.2632C255.896 97.0873 255.799 97.1393 255.373 97.6398ZM253.46 99.9062C253.247 100.133 253.262 100.256 253.573 100.801C253.725 101.069 253.85 101.303 253.85 101.321C253.85 101.339 253.974 101.568 254.124 101.83C254.275 102.092 254.472 102.436 254.562 102.594C254.722 102.875 254.728 102.878 254.859 102.76C255.108 102.535 255.132 102.417 254.984 102.166C254.908 102.038 254.847 101.905 254.847 101.87C254.847 101.795 255.428 101.065 255.541 100.998C255.584 100.973 255.756 101.001 255.925 101.062C256.229 101.172 256.231 101.171 256.367 101.008C256.629 100.694 256.583 100.659 255.428 100.286C254.834 100.094 254.25 99.8948 254.13 99.843C253.818 99.7083 253.629 99.7261 253.46 99.9062ZM254.687 100.622C254.848 100.693 254.98 100.786 254.98 100.828C254.98 100.911 254.651 101.277 254.576 101.277C254.499 101.277 254.116 100.644 254.116 100.519C254.116 100.39 254.195 100.404 254.687 100.622ZM252.165 101.677C251.592 101.849 251.06 102.486 251.06 103.001C251.06 103.37 251.284 104.043 251.475 104.249C251.652 104.439 252.253 104.664 252.583 104.664C253.229 104.664 253.9 104.098 254.052 103.425C254.17 102.901 253.804 102.144 253.269 101.805C252.946 101.599 252.57 101.556 252.165 101.677ZM253.095 102.078C253.479 102.264 253.784 102.724 253.784 103.117C253.784 104.392 252.036 104.798 251.455 103.659C250.931 102.632 252.037 101.566 253.095 102.078ZM252.123 102.42C251.812 102.631 251.679 102.987 251.783 103.335C251.883 103.669 252.175 103.879 252.595 103.919C252.893 103.948 252.934 103.933 253.151 103.716C253.341 103.527 253.385 103.431 253.385 103.218C253.385 102.902 253.25 102.747 253.115 102.91C253.066 102.969 253.032 103.101 253.04 103.204C253.057 103.42 252.905 103.602 252.709 103.602C252.553 103.602 252.057 103.135 252.057 102.989C252.057 102.844 252.288 102.662 252.536 102.611C252.693 102.579 252.754 102.53 252.754 102.436C252.754 102.239 252.406 102.23 252.123 102.42Z" fill="white"/>
</svg>
