<svg width="314" height="160" viewBox="0 0 314 160" fill="none" xmlns="http://www.w3.org/2000/svg">
<path fill-rule="evenodd" clip-rule="evenodd" d="M62.045 80.2239L62.0901 111.448L71.8376 111.494L81.5854 111.54L81.6311 100.365L81.6771 89.1902L88.65 89.1435L95.623 89.097L95.8908 88.3422C96.0381 87.9272 97.1697 84.9528 98.4056 81.7323C99.6415 78.5119 100.603 75.8277 100.543 75.7676C100.483 75.7072 96.2135 75.6057 91.0553 75.5418C85.8974 75.4779 81.657 75.4175 81.6326 75.4079C81.6082 75.3983 81.588 72.5583 81.588 69.0971V62.804L84.9267 62.6874C86.7631 62.6233 91.751 62.5658 96.0112 62.5599C100.271 62.554 104.074 62.4928 104.462 62.424L105.168 62.2987L106.645 58.3832C109.12 51.8237 109.916 49.4245 109.671 49.2669C109.552 49.1904 98.7776 49.099 85.7275 49.0637L62 49L62.045 80.2239ZM118.128 49.1692C116.909 49.227 116.818 49.2603 116.633 49.7126C116.492 50.0557 116.411 59.0157 116.351 80.8657L116.267 111.537H126.082H135.897V80.287V49.0369L127.662 49.0723C123.133 49.0917 118.842 49.1353 118.128 49.1692ZM149.608 80.287V111.537H159.402H169.195V100.347V89.1569L176.006 89.0303C179.752 88.9606 182.872 88.8479 182.939 88.7799C183.005 88.7117 184.194 85.7713 185.581 82.2457C186.967 78.72 188.143 75.7353 188.194 75.6128C188.267 75.4364 186.307 75.3902 178.741 75.3902H169.195V69.0907V62.7912L180.191 62.7054C188.95 62.6368 191.328 62.5691 191.885 62.372L192.584 62.1245L194.938 55.8923C196.233 52.4646 197.226 49.5897 197.146 49.5037C196.808 49.1444 191.849 49.0568 171.287 49.0472L149.608 49.0369V80.287ZM211.854 49.2181C211.226 49.2981 210.714 49.4669 210.592 49.6341C210.479 49.7888 209.881 51.3403 209.263 53.0819C208.645 54.8236 203.744 68.463 198.372 83.3919C193 98.3207 188.604 110.671 188.604 110.837C188.604 111.003 188.785 111.195 189.005 111.264C189.225 111.332 193.303 111.432 198.067 111.486C206.422 111.58 206.735 111.572 206.896 111.249C206.988 111.065 207.488 109.34 208.006 107.416C208.524 105.493 209.012 103.815 209.091 103.687C209.205 103.502 211.492 103.44 220.426 103.378L231.618 103.301L232.749 107.107C233.37 109.201 233.958 111.067 234.055 111.254C234.227 111.585 234.496 111.591 243.583 111.482C248.726 111.42 252.963 111.34 252.999 111.304C253.158 111.146 231.06 49.9275 230.722 49.5897C230.576 49.4434 229.994 49.2657 229.429 49.1952C228.073 49.0258 213.21 49.0452 211.854 49.2181ZM220.907 66.5316C222.195 70.478 228.364 91.071 228.28 91.1448C228.205 91.2099 217.374 91.3114 214.91 91.2701L212.992 91.2379L213.101 90.7482C213.425 89.2965 215.729 80.7662 217.201 75.5683C219.501 67.4449 220.088 65.5968 220.367 65.5968C220.496 65.5968 220.739 66.0175 220.907 66.5316Z" fill="white"/>
</svg>
