<svg width="314" height="160" viewBox="0 0 314 160" fill="none" xmlns="http://www.w3.org/2000/svg">
<path fill-rule="evenodd" clip-rule="evenodd" d="M152.184 39.0335C140.267 39.6847 131.145 41.1416 121.015 44.0117C100.262 49.8918 80.9452 60.9335 65.8109 75.5664L63 78.2844L64.7688 80.0365L66.5377 81.7888L69.472 79.047C72.6906 76.0396 75.7193 73.4248 78.5912 71.1746C95.888 57.6214 116.446 48.7472 138.059 45.504C145.546 44.3806 148.752 44.1625 157.708 44.167C165.702 44.1712 167.645 44.2758 173.727 45.0294C194.513 47.605 214.894 55.5636 231.834 67.7198C236.736 71.2375 240.953 74.7317 245.549 79.0851L248.404 81.7891L250.202 80.0081L252 78.2271L250.188 76.4235C239.736 66.0222 225.325 56.319 211.13 50.1252C197.002 43.9609 182.779 40.4669 166.861 39.2504C164.715 39.0864 154.091 38.9294 152.184 39.0335ZM134.666 54.1667C127.605 55.5896 124.207 56.3384 123.944 56.53C123.24 57.0427 122.97 57.5469 122.965 58.3598C122.959 59.1522 127.231 79.8783 127.666 81.1691C128.74 84.3529 130.87 86.3989 133.877 87.1328C134.356 87.2497 135.524 87.3417 136.481 87.3378C138.03 87.3317 138.949 87.183 145.003 85.9585C148.736 85.2037 151.813 84.5649 151.841 84.5392C151.888 84.4952 150.843 79.3721 150.677 78.8348C150.61 78.6171 149.779 78.751 144.172 79.8823C140.636 80.5959 137.376 81.1818 136.925 81.1844C134.869 81.1966 134.056 80.2147 133.337 76.8499C133.113 75.804 132.93 74.8563 132.93 74.7439C132.93 74.6143 133.321 74.469 133.996 74.3474C135.479 74.0801 147.677 71.6412 147.729 71.6016C147.799 71.5487 146.566 65.9218 146.462 65.8193C146.41 65.7675 143.148 66.368 139.215 67.1538C135.281 67.9396 131.961 68.5954 131.837 68.611C131.665 68.6326 131.451 67.8411 130.939 65.2875C130.57 63.444 130.263 61.8156 130.257 61.6689C130.245 61.3362 129.788 61.4464 138.848 59.5978C142.928 58.7654 146.296 58.0559 146.333 58.021C146.424 57.9348 145.243 52.2939 145.11 52.177C145.051 52.1257 140.352 53.0212 134.666 54.1667ZM180.635 55.3896C177.748 56.0094 175.409 58.2425 174.371 61.3702C173.69 63.424 168.597 82.8148 168.597 83.3555C168.597 84.1049 169.025 84.8777 169.653 85.2606C170.092 85.5287 174.274 86.7131 174.376 86.5982C174.391 86.5815 175.167 83.7129 176.101 80.2238C177.036 76.7346 177.85 73.8005 177.91 73.7039C177.987 73.581 179.274 73.857 182.186 74.6207C190.848 76.8926 192.471 77.3016 192.543 77.2306C192.721 77.0543 194.009 71.6211 193.896 71.5227C193.826 71.4624 190.574 70.5853 186.668 69.5735C182.762 68.5617 179.538 67.7117 179.505 67.6846C179.404 67.6028 180.44 63.8571 180.772 63.1068C180.941 62.722 181.23 62.2502 181.412 62.0585C181.943 61.5008 182.994 61.178 183.958 61.2762C184.42 61.3233 187.507 62.0697 190.819 62.935C196.445 64.4043 197.321 64.6076 197.321 64.4442C197.321 64.4091 197.646 63.1378 198.043 61.619C198.441 60.1002 198.707 58.806 198.635 58.743C198.474 58.6019 186.398 55.5466 185.1 55.3185C183.849 55.0987 181.842 55.1306 180.635 55.3896ZM94.408 69.4193C93.0705 70.5008 91.9836 71.473 91.9927 71.5797C92.0019 71.6865 94.6291 74.9623 97.8308 78.859C101.032 82.7559 104.024 86.4906 104.479 87.1583C105.597 88.7995 106.004 90.138 105.912 91.871C105.853 92.9799 105.757 93.3443 105.267 94.3141C104.533 95.7654 103.661 96.7585 102.273 97.7213C98.9709 100.012 95.481 99.8892 92.7732 97.387C92.2277 96.883 89.0223 93.1025 85.6498 88.9859C82.2774 84.8692 79.4715 81.501 79.4145 81.501C79.1934 81.501 74.459 85.4484 74.4744 85.6197C74.5049 85.9563 87.1672 101.211 88.3547 102.342C91.1625 105.015 94.26 106.155 98.0723 105.917C100.934 105.739 103.736 104.639 106.428 102.638C113.192 97.6117 114.672 89.6862 109.996 83.5277C109.368 82.6994 97.4145 68.0687 97.0299 67.6565C96.8769 67.4928 96.3669 67.8358 94.408 69.4193ZM225.807 74.5542C224.688 75.0892 196.604 93.1377 196.643 93.2964C196.699 93.5203 202.396 96.647 202.605 96.5679C202.713 96.5269 207.366 93.5733 212.944 90.0044C218.522 86.4354 223.112 83.5418 223.145 83.5739C223.195 83.6235 220.079 94.4605 219.989 94.5498C219.971 94.567 219.373 94.1269 218.66 93.5719C217.13 92.3827 217.625 92.2732 214.163 94.5651L211.83 96.1093L214.991 98.4903C216.73 99.7999 218.153 100.94 218.153 101.023C218.153 101.106 217.752 102.542 217.263 104.213L216.372 107.251L217.457 108.212C218.054 108.741 219.253 109.817 220.123 110.604C221.414 111.772 221.725 111.986 221.82 111.773C221.884 111.629 224.071 104.181 226.679 95.2202C229.684 84.8987 231.425 78.6649 231.431 78.2091C231.444 77.1818 231.091 76.6374 229.708 75.551C227.809 74.0589 227.179 73.898 225.807 74.5542ZM154.157 92.5231C150.215 92.6948 144.558 93.4364 140.713 94.2856C128.373 97.011 117.454 102.363 107.363 110.632C105.185 112.417 99.1161 118.38 99.1862 118.667C99.2135 118.778 100.051 119.574 101.047 120.435L102.858 122L105.269 119.539C110.942 113.747 116.554 109.544 123.473 105.905C132.447 101.185 142.133 98.4462 152.488 97.7023C157.299 97.3565 164.241 97.6589 169.071 98.4249C180.688 100.267 191.747 104.898 201.187 111.872C204.101 114.026 206.376 115.999 209.405 119.003L212.415 121.987L214.219 120.428C215.211 119.571 216.044 118.783 216.07 118.677C216.141 118.389 210.479 112.825 208.127 110.872C198.712 103.055 188.299 97.7366 176.688 94.8158C169.424 92.9883 161.647 92.197 154.157 92.5231Z" fill="white"/>
</svg>
